# xmcd CD database file
#
# Track frame offsets:
#	150
#	12804
#	32448
#	60453
#	92440
#	96775
#	125212
#	136480
#	149245
#	175763
#	193112
#	218020
#	229188
#	255179
#	263548
#	288208
#
# Disc length: 3980 seconds
#
# Revision: 0
# Processed by: cddbd v1.5.2PL0 Copyright (c) Steve Scherf et al.
# Submitted via: CDex 1.51
#
DISCID=db0f8a10
DTITLE=3 im roten Kreis - Nomansland
DYEAR=2013
DGENRE=Jazz
TTITLE0=Inspector Vanucci part 1
TTITLE1=The Escape
TTITLE2=Lonely Fish
TTITLE3=Nomansland
TTITLE4=Intro to Message from Africa
TTITLE5=Message from Africa
TTITLE6=Taste of Eternity
TTITLE7=Heavy Traffic
TTITLE8=Promenade
TTITLE9=El Huarango
TTITLE10=Schräge Vögel
TTITLE11=Dodo's Dream
TTITLE12=Tanimera
TTITLE13=Intro to Dark
TTITLE14=Dark
TTITLE15=Inspector Vanucci part 2
EXTD=YEAR: 2013
EXTT0=
EXTT1=
EXTT2=
EXTT3=
EXTT4=
EXTT5=
EXTT6=
EXTT7=
EXTT8=
EXTT9=
EXTT10=
EXTT11=
EXTT12=
EXTT13=
EXTT14=
EXTT15=
PLAYORDER=
